<svg width="44" height="54" viewBox="0 0 44 54" fill="none" xmlns="http://www.w3.org/2000/svg">
<path d="M43.4116 6.9058C43.4116 3.44697 40.6116 0.646973 37.1527 0.646973H6.84687C3.38804 0.646973 0.588043 3.44697 0.588043 6.9058V47.094C0.588043 50.5529 3.38804 53.3529 6.84687 53.3529H37.1527C40.6116 53.3529 43.4116 50.5529 43.4116 47.094V6.9058ZM40.1175 47.094C40.1175 48.7411 38.7998 50.0587 37.1527 50.0587H6.84687C5.19981 50.0587 3.88216 48.7411 3.88216 47.094V6.9058C3.88216 5.25874 5.19981 3.94109 6.84687 3.94109H37.1527C38.7998 3.94109 40.1175 5.25874 40.1175 6.9058V47.094Z" fill="black"/>
<path d="M11.9527 30.2939H31.388C31.8822 30.2939 32.3763 30.1292 32.7057 29.6351C33.0351 29.3057 33.1998 28.8116 33.0351 28.3175C32.3763 24.3645 29.9057 21.2351 26.6116 19.7528C27.5998 18.5998 28.2586 17.1175 28.2586 15.3057C28.2586 11.6822 25.2939 8.71747 21.6704 8.71747C18.0468 8.71747 15.0821 11.6822 15.0821 15.3057C15.0821 16.9528 15.741 18.4351 16.7292 19.7528C13.4351 21.3998 10.7998 24.5292 10.3057 28.3175C10.3057 28.8116 10.3057 29.3057 10.6351 29.6351C10.9645 30.1292 11.4586 30.2939 11.9527 30.2939ZM18.3763 15.4704C18.3763 13.6586 19.8586 12.1763 21.6704 12.1763C23.4822 12.1763 24.9645 13.6586 24.9645 15.4704C24.9645 17.2822 23.4822 18.7645 21.6704 18.7645C19.8586 18.7645 18.3763 17.2822 18.3763 15.4704ZM21.6704 22.0586C24.9645 22.0586 27.9292 24.0351 29.2469 26.9998H14.0939C15.4116 24.0351 18.3763 22.0586 21.6704 22.0586Z" fill="black"/>
<path d="M35.1761 35.2352H8.82315C7.83491 35.2352 7.17609 35.894 7.17609 36.8823C7.17609 37.8705 7.83491 38.5293 8.82315 38.5293H35.1761C36.1643 38.5293 36.8231 37.8705 36.8231 36.8823C36.8231 35.894 36.1643 35.2352 35.1761 35.2352Z" fill="black"/>
<path d="M35.1761 41.8236H8.82315C7.83491 41.8236 7.17609 42.4824 7.17609 43.4706C7.17609 44.4589 7.83491 45.1177 8.82315 45.1177H35.1761C36.1643 45.1177 36.8231 44.4589 36.8231 43.4706C36.8231 42.4824 36.1643 41.8236 35.1761 41.8236Z" fill="black"/>
</svg>
