<svg width="56" height="48" viewBox="0 0 56 48" fill="none" xmlns="http://www.w3.org/2000/svg">
<path d="M50.8392 0.392151H5.16078C2.31511 0.392151 0 2.70726 0 5.55294V42.4471C0 45.2927 2.31511 47.6078 5.16078 47.6078H50.8392C53.6849 47.6078 56 45.2927 56 42.4471V5.55294C56 2.70726 53.6849 0.392151 50.8392 0.392151ZM3.29412 5.55294C3.29412 4.52363 4.13148 3.68627 5.16078 3.68627H40.7587C40.533 4.26559 40.4078 4.89477 40.4078 5.55294C40.4078 6.58224 39.5705 7.4196 38.5412 7.4196H3.29412V5.55294ZM52.7059 42.4471C52.7059 43.4764 51.8685 44.3137 50.8392 44.3137H5.16078C4.13148 44.3137 3.29412 43.4764 3.29412 42.4471V10.7137H38.5412C41.3869 10.7137 43.702 8.39861 43.702 5.55294C43.702 4.52363 44.5393 3.68627 45.5686 3.68627H50.8392C51.8685 3.68627 52.7059 4.52363 52.7059 5.55294V42.4471Z" fill="black"/>
<path d="M28 14.4471C20.795 14.4471 14.9333 20.3087 14.9333 27.5137C14.9333 34.7187 20.795 40.5804 28 40.5804C35.205 40.5804 41.0667 34.7187 41.0667 27.5137C41.0667 20.3087 35.205 14.4471 28 14.4471ZM18.367 29.1608H22.0049C22.1412 31.7532 22.5978 34.1668 23.3256 36.0938C20.7513 34.6857 18.877 32.153 18.367 29.1608ZM22.0049 25.8667H18.367C18.8771 22.8745 20.7513 20.3418 23.3256 18.9337C22.5978 20.8607 22.1412 23.2743 22.0049 25.8667ZM29.5685 34.9973C28.8968 36.7439 28.1837 37.2863 28 37.2863C27.8163 37.2863 27.1032 36.7439 26.4316 34.9973C25.8312 33.4363 25.437 31.3698 25.3047 29.1608H30.6954C30.5631 31.3699 30.1689 33.4363 29.5685 34.9973ZM25.3047 25.8667C25.437 23.6575 25.8311 21.5911 26.4316 20.0302C27.1032 18.2836 27.8163 17.7412 28 17.7412C28.1837 17.7412 28.8968 18.2836 29.5685 20.0302C30.1689 21.5911 30.5631 23.6576 30.6954 25.8667H25.3047ZM32.6746 36.0938C33.4023 34.1668 33.8588 31.7532 33.9952 29.1608H37.6331C37.1231 32.153 35.2487 34.6857 32.6746 36.0938ZM33.9951 25.8667C33.8588 23.2743 33.4023 20.8607 32.6745 18.9337C35.2486 20.3417 37.123 22.8745 37.633 25.8667H33.9951Z" fill="black"/>
<path d="M48.2039 8.95742C49.1136 8.95742 49.851 8.22001 49.851 7.31036C49.851 6.40071 49.1136 5.6633 48.2039 5.6633C47.2943 5.6633 46.5569 6.40071 46.5569 7.31036C46.5569 8.22001 47.2943 8.95742 48.2039 8.95742Z" fill="black"/>
</svg>
