<svg width="50" height="50" viewBox="0 0 50 50" fill="none" xmlns="http://www.w3.org/2000/svg">
<path d="M25 0.5C18.5022 0.5 12.2705 3.08124 7.67588 7.67588C3.08124 12.2705 0.5 18.5022 0.5 25C0.5 25.4641 0.684374 25.9093 1.01256 26.2374C1.34075 26.5656 1.78587 26.75 2.25 26.75H23.25V47.75C23.25 48.2141 23.4344 48.6592 23.7626 48.9874C24.0908 49.3156 24.5359 49.5 25 49.5C31.4978 49.5 37.7295 46.9188 42.3241 42.3241C46.9188 37.7295 49.5 31.4978 49.5 25C49.5 18.5022 46.9188 12.2705 42.3241 7.67588C37.7295 3.08124 31.4978 0.5 25 0.5ZM26.75 46V25C26.75 24.5359 26.5656 24.0908 26.2374 23.7626C25.9093 23.4344 25.4641 23.25 25 23.25H4C4.34833 19.2677 5.82605 15.4676 8.25952 12.2961C10.693 9.12467 13.9811 6.71366 17.7375 5.3464C21.4939 3.97914 25.5625 3.71244 29.4653 4.57764C33.368 5.44284 36.9427 7.40398 39.7694 10.2306C42.596 13.0573 44.5572 16.632 45.4224 20.5347C46.2876 24.4375 46.0209 28.5061 44.6536 32.2625C43.2863 36.0189 40.8753 39.307 37.7039 41.7405C34.5324 44.174 30.7323 45.6517 26.75 46Z" fill="black"/>
<path d="M18 30.25H3.35254C3.06903 30.2359 2.78634 30.291 2.52886 30.4105C2.27138 30.53 2.04684 30.7104 1.8746 30.936C1.70235 31.1616 1.58759 31.4258 1.54019 31.7057C1.49279 31.9856 1.51419 32.2728 1.60254 32.5425C2.79658 36.2255 4.84649 39.5731 7.58422 42.3108C10.3219 45.0486 13.6695 47.0985 17.3525 48.2925C17.6223 48.3809 17.9095 48.4023 18.1894 48.3549C18.4693 48.3075 18.7334 48.1927 18.9591 48.0205C19.1847 47.8482 19.365 47.6237 19.4846 47.3662C19.6041 47.1087 19.6591 46.826 19.645 46.5425V32C19.6458 31.5535 19.476 31.1236 19.1701 30.7983C18.8643 30.4729 18.4457 30.2768 18 30.25ZM16.25 44.075C11.6841 41.9792 8.02085 38.3159 5.92504 33.75H16.25V44.075Z" fill="black"/>
</svg>
