<svg width="50" height="46" viewBox="0 0 50 46" fill="none" xmlns="http://www.w3.org/2000/svg">
<path d="M43.375 45.925H6.625C5.23261 45.925 3.89726 45.3719 2.91269 44.3873C1.92812 43.4027 1.375 42.0674 1.375 40.675V21.565C0.803798 20.7039 0.49942 19.6933 0.500001 18.66V14.25C0.500001 12.8576 1.05312 11.5223 2.03769 10.5377C3.02226 9.55312 4.35761 9 5.75 9H12.75V5.5C12.75 4.10761 13.3031 2.77226 14.2877 1.78769C15.2723 0.803124 16.6076 0.25 18 0.25H32C33.3924 0.25 34.7277 0.803124 35.7123 1.78769C36.6969 2.77226 37.25 4.10761 37.25 5.5V9H44.25C45.6424 9 46.9777 9.55312 47.9623 10.5377C48.9469 11.5223 49.5 12.8576 49.5 14.25V18.66C49.5006 19.6933 49.1962 20.7039 48.625 21.565V40.675C48.625 42.0674 48.0719 43.4027 47.0873 44.3873C46.1027 45.3719 44.7674 45.925 43.375 45.925ZM4.875 23.875V40.675C4.875 41.1391 5.05938 41.5842 5.38756 41.9124C5.71575 42.2406 6.16087 42.425 6.625 42.425H43.375C43.8391 42.425 44.2842 42.2406 44.6124 41.9124C44.9406 41.5842 45.125 41.1391 45.125 40.675V23.875L30.25 28.46V30C30.25 31.3924 29.6969 32.7277 28.7123 33.7123C27.7277 34.6969 26.3924 35.25 25 35.25C23.6076 35.25 22.2723 34.6969 21.2877 33.7123C20.3031 32.7277 19.75 31.3924 19.75 30V28.46L4.875 23.875ZM23.25 27.2V30C23.25 30.4641 23.4344 30.9093 23.7626 31.2374C24.0908 31.5656 24.5359 31.75 25 31.75C25.4641 31.75 25.9093 31.5656 26.2374 31.2374C26.5656 30.9093 26.75 30.4641 26.75 30V24.75H23.25V27.2ZM5.75 12.5C5.28587 12.5 4.84075 12.6844 4.51256 13.0126C4.18438 13.3408 4 13.7859 4 14.25V18.66C3.98233 19.046 4.09292 19.427 4.31451 19.7436C4.53611 20.0602 4.85625 20.2945 5.225 20.41L19.75 24.75V23C19.75 22.5359 19.9344 22.0908 20.2626 21.7626C20.5908 21.4344 21.0359 21.25 21.5 21.25H28.5C28.9641 21.25 29.4093 21.4344 29.7374 21.7626C30.0656 22.0908 30.25 22.5359 30.25 23V24.75L44.775 20.27C45.1437 20.1545 45.4639 19.9202 45.6855 19.6036C45.9071 19.287 46.0177 18.906 46 18.52V14.25C46 13.7859 45.8156 13.3408 45.4874 13.0126C45.1592 12.6844 44.7141 12.5 44.25 12.5H5.75ZM16.25 9H33.75V5.5C33.75 5.03587 33.5656 4.59075 33.2374 4.26256C32.9092 3.93437 32.4641 3.75 32 3.75H18C17.5359 3.75 17.0908 3.93437 16.7626 4.26256C16.4344 4.59075 16.25 5.03587 16.25 5.5V9Z" fill="black"/>
</svg>
